<svg width="165" height="182" viewBox="0 0 165 182" fill="none" xmlns="http://www.w3.org/2000/svg">
<g clip-path="url(#clip0_0_1089)">
<rect x="0.0874023" width="164" height="182" rx="8" fill="#F6A560"/>
<path d="M32.4712 153.288C33.8472 153.288 35.0632 153 36.1192 152.424C37.1912 151.848 38.0312 151.056 38.6392 150.048C39.2472 149.04 39.5512 147.896 39.5512 146.616V135.12H36.2872V146.448C36.2872 147.2 36.1192 147.872 35.7832 148.464C35.4632 149.04 35.0152 149.496 34.4392 149.832C33.8792 150.152 33.2232 150.312 32.4712 150.312C31.7352 150.312 31.0792 150.152 30.5032 149.832C29.9272 149.496 29.4712 149.04 29.1352 148.464C28.8152 147.872 28.6552 147.2 28.6552 146.448V135.12H25.3912V146.616C25.3912 147.896 25.6952 149.04 26.3032 150.048C26.9112 151.056 27.7432 151.848 28.7992 152.424C29.8712 153 31.0952 153.288 32.4712 153.288ZM42.8097 153H46.0737V135.12H42.8097V153ZM48.1449 153.96H51.6009L59.5689 134.16H56.1369L48.1449 153.96ZM68.5415 153.288C69.9175 153.288 71.1335 153 72.1895 152.424C73.2615 151.848 74.1015 151.056 74.7095 150.048C75.3175 149.04 75.6215 147.896 75.6215 146.616V135.12H72.3575V146.448C72.3575 147.2 72.1895 147.872 71.8535 148.464C71.5335 149.04 71.0855 149.496 70.5095 149.832C69.9495 150.152 69.2935 150.312 68.5415 150.312C67.8055 150.312 67.1495 150.152 66.5735 149.832C65.9975 149.496 65.5415 149.04 65.2055 148.464C64.8855 147.872 64.7255 147.2 64.7255 146.448V135.12H61.4615V146.616C61.4615 147.896 61.7655 149.04 62.3735 150.048C62.9815 151.056 63.8135 151.848 64.8695 152.424C65.9415 153 67.1655 153.288 68.5415 153.288ZM77.416 153H81.16L85.096 146.952L89.008 153H92.752L86.92 144L92.704 135.12H88.96L85.096 141.072L81.208 135.12H77.464L83.272 144L77.416 153Z" fill="white"/>
<circle cx="124" cy="40" r="14" stroke="#030303" stroke-width="4"/>
<rect x="76" y="24" width="32" height="32" fill="#EB7565"/>
<rect x="76" y="56" width="4" height="4" fill="#030303"/>
<rect x="90" y="56" width="4" height="4" fill="#030303"/>
<rect x="104" y="56" width="4" height="4" fill="#030303"/>
<rect x="76" y="70" width="4" height="4" fill="#030303"/>
<rect x="90" y="70" width="4" height="4" fill="#030303"/>
<rect x="104" y="70" width="4" height="4" fill="#030303"/>
<rect x="76" y="84" width="4" height="4" fill="#030303"/>
<rect x="90" y="84" width="4" height="4" fill="#030303"/>
<rect x="104" y="84" width="4" height="4" fill="#030303"/>
<path fill-rule="evenodd" clip-rule="evenodd" d="M108 56L140 88V56H108Z" fill="#FFF7F0"/>
</g>
<defs>
<clipPath id="clip0_0_1089">
<rect width="164" height="182" fill="white" transform="translate(0.0874023)"/>
</clipPath>
</defs>
</svg>
