<svg width="165" height="182" viewBox="0 0 165 182" fill="none" xmlns="http://www.w3.org/2000/svg">
<g clip-path="url(#clip0_0_1109)">
<rect x="0.131165" width="164" height="182" rx="8" fill="#F39E9E"/>
<path d="M24.1629 153H27.6909L28.9869 149.16H35.8989L37.1709 153H40.7229L34.5549 135.12H30.3309L24.1629 153ZM29.9229 146.28L32.4429 138.744L34.9629 146.28H29.9229ZM42.4489 157.8H45.5929V151.752C46.0729 152.248 46.6569 152.632 47.3449 152.904C48.0329 153.16 48.7769 153.288 49.5769 153.288C50.8409 153.288 51.9689 152.992 52.9609 152.4C53.9529 151.792 54.7369 150.976 55.3129 149.952C55.8889 148.912 56.1769 147.752 56.1769 146.472C56.1769 145.192 55.8889 144.04 55.3129 143.016C54.7369 141.976 53.9529 141.16 52.9609 140.568C51.9689 139.96 50.8489 139.656 49.6009 139.656C48.7049 139.656 47.8969 139.816 47.1769 140.136C46.4569 140.456 45.8649 140.904 45.4009 141.48V139.944H42.4489V157.8ZM49.2169 150.408C48.5289 150.408 47.9049 150.24 47.3449 149.904C46.8009 149.568 46.3689 149.104 46.0489 148.512C45.7449 147.92 45.5929 147.24 45.5929 146.472C45.5929 145.704 45.7449 145.024 46.0489 144.432C46.3689 143.84 46.8009 143.376 47.3449 143.04C47.9049 142.704 48.5289 142.536 49.2169 142.536C49.9369 142.536 50.5689 142.712 51.1129 143.064C51.6729 143.4 52.1129 143.864 52.4329 144.456C52.7529 145.048 52.9129 145.72 52.9129 146.472C52.9129 147.224 52.7529 147.904 52.4329 148.512C52.1129 149.104 51.6729 149.568 51.1129 149.904C50.5689 150.24 49.9369 150.408 49.2169 150.408ZM58.5739 157.8H61.7179V151.752C62.1979 152.248 62.7819 152.632 63.4699 152.904C64.1579 153.16 64.9019 153.288 65.7019 153.288C66.9659 153.288 68.0939 152.992 69.0859 152.4C70.0779 151.792 70.8619 150.976 71.4379 149.952C72.0139 148.912 72.3019 147.752 72.3019 146.472C72.3019 145.192 72.0139 144.04 71.4379 143.016C70.8619 141.976 70.0779 141.16 69.0859 140.568C68.0939 139.96 66.9739 139.656 65.7259 139.656C64.8299 139.656 64.0219 139.816 63.3019 140.136C62.5819 140.456 61.9899 140.904 61.5259 141.48V139.944H58.5739V157.8ZM65.3419 150.408C64.6539 150.408 64.0299 150.24 63.4699 149.904C62.9259 149.568 62.4939 149.104 62.1739 148.512C61.8699 147.92 61.7179 147.24 61.7179 146.472C61.7179 145.704 61.8699 145.024 62.1739 144.432C62.4939 143.84 62.9259 143.376 63.4699 143.04C64.0299 142.704 64.6539 142.536 65.3419 142.536C66.0619 142.536 66.6939 142.712 67.2379 143.064C67.7979 143.4 68.2379 143.864 68.5579 144.456C68.8779 145.048 69.0379 145.72 69.0379 146.472C69.0379 147.224 68.8779 147.904 68.5579 148.512C68.2379 149.104 67.7979 149.568 67.2379 149.904C66.6939 150.24 66.0619 150.408 65.3419 150.408ZM79.6669 153.288C80.6589 153.288 81.5229 153.12 82.2589 152.784C82.9949 152.448 83.5709 151.984 83.9869 151.392C84.4029 150.784 84.6109 150.088 84.6109 149.304C84.6109 148.392 84.3229 147.608 83.7469 146.952C83.1709 146.296 82.3389 145.816 81.2509 145.512L79.1629 144.888C78.7149 144.76 78.3469 144.592 78.0589 144.384C77.7709 144.176 77.6269 143.888 77.6269 143.52C77.6269 143.136 77.7789 142.824 78.0829 142.584C78.3869 142.344 78.8029 142.224 79.3309 142.224C79.9869 142.224 80.5789 142.4 81.1069 142.752C81.6509 143.104 82.0269 143.576 82.2349 144.168L84.6349 143.04C84.2349 141.984 83.5629 141.16 82.6189 140.568C81.6749 139.96 80.5869 139.656 79.3549 139.656C78.4109 139.656 77.5709 139.824 76.8349 140.16C76.1149 140.496 75.5469 140.968 75.1309 141.576C74.7309 142.168 74.5309 142.864 74.5309 143.664C74.5309 144.56 74.8109 145.336 75.3709 145.992C75.9469 146.648 76.7869 147.136 77.8909 147.456L80.0269 148.056C80.4429 148.168 80.7949 148.336 81.0829 148.56C81.3869 148.768 81.5389 149.056 81.5389 149.424C81.5389 149.856 81.3629 150.2 81.0109 150.456C80.6749 150.696 80.2269 150.816 79.6669 150.816C78.9309 150.816 78.2669 150.608 77.6749 150.192C77.0829 149.776 76.6109 149.2 76.2589 148.464L73.9069 149.592C74.2909 150.712 74.9949 151.608 76.0189 152.28C77.0589 152.952 78.2749 153.288 79.6669 153.288Z" fill="white"/>
<rect x="76" y="56" width="64" height="32" rx="16" fill="#552049"/>
<circle cx="124" cy="72" r="14" stroke="#FFF7F0" stroke-width="4"/>
<rect x="76" y="38" width="4" height="4" fill="#030303"/>
<rect x="80" y="38" width="4" height="4" fill="#030303"/>
<rect x="104" y="38" width="4" height="4" fill="#030303"/>
<path fill-rule="evenodd" clip-rule="evenodd" d="M108 24L140 56V24H108Z" fill="#755CDE"/>
<rect x="108" y="38" width="4" height="4" fill="#030303"/>
<rect x="132" y="38" width="4" height="4" fill="#030303"/>
<rect x="136" y="38" width="4" height="4" fill="#030303"/>
</g>
<defs>
<clipPath id="clip0_0_1109">
<rect width="164" height="182" fill="white" transform="translate(0.131165)"/>
</clipPath>
</defs>
</svg>
