<svg width="355" height="158" viewBox="0 0 355 158" fill="none" xmlns="http://www.w3.org/2000/svg">
<g clip-path="url(#clip0_0_1040)">
<rect x="0.0874023" width="354" height="158" rx="8" fill="#EB7565"/>
<circle cx="313" cy="40" r="14" stroke="#FFF7F0" stroke-width="4"/>
<rect x="265" y="24" width="32" height="32" fill="#755CDE"/>
<rect x="297" y="56" width="4" height="4" fill="#030303"/>
<rect x="311" y="56" width="4" height="4" fill="#030303"/>
<rect x="325" y="56" width="4" height="4" fill="#030303"/>
<rect x="297" y="70" width="4" height="4" fill="#030303"/>
<rect x="311" y="70" width="4" height="4" fill="#030303"/>
<rect x="325" y="70" width="4" height="4" fill="#030303"/>
<rect x="297" y="84" width="4" height="4" fill="#030303"/>
<rect x="311" y="84" width="4" height="4" fill="#030303"/>
<rect x="325" y="84" width="4" height="4" fill="#030303"/>
<path fill-rule="evenodd" clip-rule="evenodd" d="M265 56L297 88V56H265Z" fill="#F39E9E"/>
<rect x="233" y="56" width="4" height="4" fill="#030303"/>
<rect x="247" y="56" width="4" height="4" fill="#030303"/>
<rect x="261" y="56" width="4" height="4" fill="#030303"/>
<rect x="233" y="80" width="4" height="4" fill="#030303"/>
<rect x="247" y="80" width="4" height="4" fill="#030303"/>
<rect x="261" y="80" width="4" height="4" fill="#030303"/>
<rect x="233" y="84" width="4" height="4" fill="#030303"/>
<rect x="247" y="84" width="4" height="4" fill="#030303"/>
<rect x="261" y="84" width="4" height="4" fill="#030303"/>
<rect x="233" y="24" width="4" height="4" fill="#030303"/>
<rect x="247" y="24" width="4" height="4" fill="#030303"/>
<rect x="261" y="24" width="4" height="4" fill="#030303"/>
<rect x="233" y="28" width="4" height="4" fill="#030303"/>
<rect x="247" y="28" width="4" height="4" fill="#030303"/>
<rect x="261" y="28" width="4" height="4" fill="#030303"/>
<rect x="233" y="52" width="4" height="4" fill="#030303"/>
<rect x="247" y="52" width="4" height="4" fill="#030303"/>
<rect x="261" y="52" width="4" height="4" fill="#030303"/>
<path fill-rule="evenodd" clip-rule="evenodd" d="M201 56L233 88V56H201Z" fill="#61C4B7"/>
<path fill-rule="evenodd" clip-rule="evenodd" d="M233 24L201 56V24H233Z" fill="#FFF7F0"/>
<path d="M26.1651 129H29.4291V111.12H26.1651V129ZM32.6043 129H35.7483V110.832H32.6043V129ZM38.6511 129H41.7951V110.832H38.6511V129ZM49.354 129.288C50.17 129.288 50.89 129.136 51.514 128.832C52.154 128.512 52.658 128.048 53.026 127.44V129H56.002V115.944H52.858V123.6C52.858 124.464 52.61 125.152 52.114 125.664C51.618 126.16 50.986 126.408 50.218 126.408C49.434 126.408 48.794 126.16 48.298 125.664C47.818 125.168 47.578 124.504 47.578 123.672V115.944H44.434V123.936C44.434 125.536 44.866 126.832 45.73 127.824C46.61 128.8 47.818 129.288 49.354 129.288ZM63.8926 129.288C64.8846 129.288 65.7486 129.12 66.4846 128.784C67.2206 128.448 67.7966 127.984 68.2126 127.392C68.6286 126.784 68.8366 126.088 68.8366 125.304C68.8366 124.392 68.5486 123.608 67.9726 122.952C67.3966 122.296 66.5646 121.816 65.4766 121.512L63.3886 120.888C62.9406 120.76 62.5726 120.592 62.2846 120.384C61.9966 120.176 61.8526 119.888 61.8526 119.52C61.8526 119.136 62.0046 118.824 62.3086 118.584C62.6126 118.344 63.0286 118.224 63.5566 118.224C64.2126 118.224 64.8046 118.4 65.3326 118.752C65.8766 119.104 66.2526 119.576 66.4606 120.168L68.8606 119.04C68.4606 117.984 67.7886 117.16 66.8446 116.568C65.9006 115.96 64.8126 115.656 63.5806 115.656C62.6366 115.656 61.7966 115.824 61.0606 116.16C60.3406 116.496 59.7726 116.968 59.3566 117.576C58.9566 118.168 58.7566 118.864 58.7566 119.664C58.7566 120.56 59.0366 121.336 59.5966 121.992C60.1726 122.648 61.0126 123.136 62.1166 123.456L64.2526 124.056C64.6686 124.168 65.0206 124.336 65.3086 124.56C65.6126 124.768 65.7646 125.056 65.7646 125.424C65.7646 125.856 65.5886 126.2 65.2366 126.456C64.9006 126.696 64.4526 126.816 63.8926 126.816C63.1566 126.816 62.4926 126.608 61.9006 126.192C61.3086 125.776 60.8366 125.2 60.4846 124.464L58.1326 125.592C58.5166 126.712 59.2206 127.608 60.2446 128.28C61.2846 128.952 62.5006 129.288 63.8926 129.288ZM77.2047 129.144C77.7327 129.144 78.2527 129.104 78.7647 129.024V126.312C78.4607 126.36 78.1807 126.384 77.9247 126.384C77.1567 126.384 76.5967 126.208 76.2447 125.856C75.8927 125.504 75.7167 125 75.7167 124.344V118.752H78.7167V115.944H75.7167V112.968H72.5727V113.976C72.5727 114.616 72.3967 115.104 72.0447 115.44C71.6927 115.776 71.1967 115.944 70.5567 115.944H70.3167V118.752H72.5727V124.512C72.5727 125.968 72.9727 127.104 73.7727 127.92C74.5887 128.736 75.7327 129.144 77.2047 129.144ZM81.1668 129H84.3108V121.728C84.3108 120.736 84.5828 119.968 85.1268 119.424C85.6868 118.864 86.4068 118.584 87.2868 118.584H88.4148V115.8H87.6468C86.8468 115.8 86.1428 115.944 85.5348 116.232C84.9268 116.52 84.4548 117.04 84.1188 117.792V115.944H81.1668V129ZM94.1033 129.288C95.7993 129.288 97.1593 128.728 98.1833 127.608V129H101.159V120.312C101.159 119.4 100.927 118.592 100.463 117.888C99.9993 117.184 99.3593 116.64 98.5433 116.256C97.7433 115.856 96.8073 115.656 95.7353 115.656C94.4233 115.656 93.2553 115.968 92.2313 116.592C91.2073 117.216 90.5033 118.04 90.1193 119.064L92.6873 120.312C92.9273 119.72 93.3033 119.248 93.8153 118.896C94.3273 118.528 94.9273 118.344 95.6153 118.344C96.3353 118.344 96.9113 118.536 97.3433 118.92C97.7913 119.288 98.0153 119.752 98.0153 120.312V120.744L94.1273 121.368C92.5913 121.624 91.4553 122.112 90.7193 122.832C89.9833 123.552 89.6153 124.456 89.6153 125.544C89.6153 126.696 90.0233 127.608 90.8393 128.28C91.6553 128.952 92.7433 129.288 94.1033 129.288ZM92.8793 125.424C92.8793 124.512 93.4953 123.936 94.7273 123.696L98.0153 123.144V123.672C98.0153 124.568 97.7033 125.328 97.0793 125.952C96.4713 126.576 95.6713 126.888 94.6793 126.888C94.1513 126.888 93.7193 126.76 93.3833 126.504C93.0473 126.232 92.8793 125.872 92.8793 125.424ZM109.783 129.144C110.311 129.144 110.831 129.104 111.343 129.024V126.312C111.039 126.36 110.759 126.384 110.503 126.384C109.735 126.384 109.175 126.208 108.823 125.856C108.471 125.504 108.295 125 108.295 124.344V118.752H111.295V115.944H108.295V112.968H105.151V113.976C105.151 114.616 104.975 115.104 104.623 115.44C104.271 115.776 103.775 115.944 103.135 115.944H102.895V118.752H105.151V124.512C105.151 125.968 105.551 127.104 106.351 127.92C107.167 128.736 108.311 129.144 109.783 129.144ZM113.745 114.48H116.889V111.12H113.745V114.48ZM113.745 129H116.889V115.944H113.745V129ZM126.176 129.288C127.44 129.288 128.592 129 129.632 128.424C130.672 127.832 131.504 127.024 132.128 126C132.752 124.96 133.064 123.784 133.064 122.472C133.064 121.16 132.752 119.992 132.128 118.968C131.52 117.944 130.696 117.136 129.656 116.544C128.616 115.952 127.456 115.656 126.176 115.656C124.88 115.656 123.712 115.952 122.672 116.544C121.632 117.136 120.8 117.944 120.176 118.968C119.568 119.992 119.264 121.16 119.264 122.472C119.264 123.784 119.568 124.952 120.176 125.976C120.8 127 121.632 127.808 122.672 128.4C123.728 128.992 124.896 129.288 126.176 129.288ZM126.176 126.408C125.472 126.408 124.84 126.24 124.28 125.904C123.736 125.568 123.304 125.104 122.984 124.512C122.68 123.904 122.528 123.224 122.528 122.472C122.528 121.72 122.68 121.048 122.984 120.456C123.304 119.864 123.736 119.4 124.28 119.064C124.84 118.712 125.472 118.536 126.176 118.536C126.88 118.536 127.496 118.712 128.024 119.064C128.568 119.4 128.992 119.864 129.296 120.456C129.616 121.048 129.776 121.72 129.776 122.472C129.776 123.224 129.616 123.904 129.296 124.512C128.992 125.104 128.568 125.568 128.024 125.904C127.496 126.24 126.88 126.408 126.176 126.408ZM135.448 129H138.592V121.344C138.592 120.496 138.832 119.816 139.312 119.304C139.808 118.792 140.448 118.536 141.232 118.536C142.016 118.536 142.648 118.792 143.128 119.304C143.624 119.8 143.872 120.48 143.872 121.344V129H147.016V120.6C147.016 119.624 146.808 118.768 146.392 118.032C145.976 117.28 145.392 116.696 144.64 116.28C143.904 115.864 143.056 115.656 142.096 115.656C141.28 115.656 140.544 115.816 139.888 116.136C139.248 116.456 138.752 116.928 138.4 117.552V115.944H135.448V129ZM154.643 129.288C155.635 129.288 156.499 129.12 157.235 128.784C157.971 128.448 158.547 127.984 158.963 127.392C159.379 126.784 159.587 126.088 159.587 125.304C159.587 124.392 159.299 123.608 158.723 122.952C158.147 122.296 157.315 121.816 156.227 121.512L154.139 120.888C153.691 120.76 153.323 120.592 153.035 120.384C152.747 120.176 152.603 119.888 152.603 119.52C152.603 119.136 152.755 118.824 153.059 118.584C153.363 118.344 153.779 118.224 154.307 118.224C154.963 118.224 155.555 118.4 156.083 118.752C156.627 119.104 157.003 119.576 157.211 120.168L159.611 119.04C159.211 117.984 158.539 117.16 157.595 116.568C156.651 115.96 155.563 115.656 154.331 115.656C153.387 115.656 152.547 115.824 151.811 116.16C151.091 116.496 150.523 116.968 150.107 117.576C149.707 118.168 149.507 118.864 149.507 119.664C149.507 120.56 149.787 121.336 150.347 121.992C150.923 122.648 151.763 123.136 152.867 123.456L155.003 124.056C155.419 124.168 155.771 124.336 156.059 124.56C156.363 124.768 156.515 125.056 156.515 125.424C156.515 125.856 156.339 126.2 155.987 126.456C155.651 126.696 155.203 126.816 154.643 126.816C153.907 126.816 153.243 126.608 152.651 126.192C152.059 125.776 151.587 125.2 151.235 124.464L148.883 125.592C149.267 126.712 149.971 127.608 150.995 128.28C152.035 128.952 153.251 129.288 154.643 129.288Z" fill="white"/>
</g>
<defs>
<clipPath id="clip0_0_1040">
<rect width="354" height="158" fill="white" transform="translate(0.0874023)"/>
</clipPath>
</defs>
</svg>
